<?xml version="1.0" encoding="UTF-8"?>
<svg version="1.1" xmlns="http://www.w3.org/2000/svg" width="1280" height="196">
<path d="M0 0 C21.04813373 16.60995402 35.16670259 38.69373424 39.09375 65.44140625 C40.9182095 95.0655956 35.65044076 120.75756695 15.78125 143.56640625 C-2.66216151 163.2058069 -25.76541664 175.49004336 -53.078125 176.56640625 C-80.31513251 177.05061972 -104.86050031 167.92996184 -124.65673828 149.04077148 C-142.23852415 131.74203094 -152.82998558 108.16136689 -153.19897461 83.46557617 C-153.26348007 70.95072016 -153.17293435 59.29499793 -148.90625 47.44140625 C-148.66487305 46.76867676 -148.42349609 46.09594727 -148.17480469 45.40283203 C-138.83548089 20.35112385 -119.93694657 0.83927553 -95.90625 -10.55859375 C-64.63474417 -23.78475324 -27.39492955 -20.03762792 0 0 Z " fill="#000000" transform="translate(152.90625,19.55859375)"/>
<path d="M0 0 C19.8 0 39.6 0 60 0 C64.35089145 9.32333883 68.58004028 18.5704159 72.5 28.0625 C73.61442338 30.74334296 74.7325822 33.42261876 75.8515625 36.1015625 C76.15998077 36.84021042 76.46839905 37.57885834 76.78616333 38.33988953 C81.75931919 50.22958837 86.82417823 62.08065387 91.875 73.9375 C92.37281982 75.10717316 92.87063965 76.27684631 93.38354492 77.48196411 C98.86009656 90.34890516 104.35442008 103.20617297 110 116 C116.68489674 101.2092809 123.16645276 86.34561239 129.4375 71.375 C136.0309198 55.63501897 142.71223893 39.93411255 149.4375 24.25 C149.90823944 23.15145691 150.37897888 22.05291382 150.86398315 20.92108154 C152.19886374 17.80640891 153.53473146 14.69216215 154.87109375 11.578125 C155.27448975 10.63726044 155.67788574 9.69639587 156.09350586 8.72702026 C156.46282227 7.86738678 156.83213867 7.0077533 157.21264648 6.12207031 C157.53522934 5.37064758 157.85781219 4.61922485 158.19017029 3.84503174 C158.75950431 2.54792035 159.36649559 1.26700882 160 0 C178.48 0 196.96 0 216 0 C216 0.99 216 1.98 216 3 C215.32453125 3.21914062 214.6490625 3.43828125 213.953125 3.6640625 C209.62634736 5.20219443 206.6085347 6.34693837 203.4375 9.75 C200.12461169 17.24000836 200.85391009 25.8034474 200.8671875 33.84375 C200.86573227 35.12587875 200.86427704 36.40800751 200.86277771 37.72898865 C200.85974829 41.24994045 200.86404141 44.77084462 200.87082291 48.29179001 C200.87501023 50.50540884 200.87796946 52.71902664 200.88070679 54.93264771 C200.8964916 66.28855261 200.94332823 77.64423359 201 89 C201.00425743 89.88881615 201.00851486 90.77763229 201.01290131 91.69338226 C201.07050302 103.64905951 201.15168032 115.60428347 201.26446533 127.55957031 C201.29789686 131.14239894 201.32468014 134.7251841 201.34588623 138.30810547 C201.37152946 142.54846976 201.41171544 146.788453 201.46306038 151.02858162 C201.47969639 152.59434558 201.49133615 154.16017167 201.49764824 155.72601128 C201.50723079 157.87365733 201.5351316 160.02032028 201.56762695 162.16772461 C201.57873001 163.37271103 201.58983307 164.57769745 201.60127258 165.81919861 C202.03921188 169.31280818 202.91458036 171.19136733 205 174 C208.42821249 176.50166858 211.95473888 177.77701408 216 179 C216 179.99 216 180.98 216 182 C192.57 182 169.14 182 145 182 C145 181.01 145 180.02 145 179 C145.60328125 178.82984375 146.2065625 178.6596875 146.828125 178.484375 C153.22499493 176.55059316 153.22499493 176.55059316 158 172 C159.04531771 168.86404687 159.12324313 166.69068071 159.12025452 163.40022278 C159.12162918 162.23494553 159.12300385 161.06966827 159.12442017 159.86907959 C159.12082489 158.5894635 159.11722961 157.30984741 159.11352539 155.99145508 C159.11324334 154.63142397 159.1134016 153.27139271 159.1139679 151.91136169 C159.11425518 148.21742897 159.1083696 144.52352862 159.10139394 140.82960343 C159.09514891 136.96987461 159.09455569 133.11014508 159.09336853 129.25041199 C159.09025861 121.94064908 159.08204978 114.63090109 159.07201904 107.32114476 C159.06084739 98.99959108 159.0553448 90.67803669 159.05032361 82.35647738 C159.0398669 65.23764295 159.022274 48.11882305 159 31 C158.63495298 31.87131026 158.26990597 32.74262053 157.89379692 33.64033413 C156.51193116 36.93823326 155.12979791 40.23602004 153.74749565 43.53373623 C153.15440233 44.94880685 152.56140927 46.36391949 151.96852684 47.77907848 C146.4036874 61.06152805 140.77729341 74.3170126 135.125 87.5625 C134.14915063 89.85135682 133.17340454 92.14025768 132.19775391 94.42919922 C130.1706707 99.18458818 128.14315181 103.93979096 126.11523438 108.69482422 C121.37063218 119.82024668 116.62878419 130.94684201 111.88812256 142.07394409 C110.40908592 145.54500582 108.92942384 149.01580045 107.44970703 152.48657227 C106.53675666 154.62905742 105.62383214 156.7715536 104.7109375 158.9140625 C104.30667542 159.86185074 103.90241333 160.80963898 103.48590088 161.78614807 C100.62215827 168.5095896 97.80242878 175.25078435 95 182 C93.35 182 91.7 182 90 182 C85.16814709 172.87923128 81.2526062 163.37746016 77.25 153.875 C76.49839019 152.09751104 75.74643014 150.32017015 74.99414062 148.54296875 C73.43419464 144.85701521 71.87574525 141.17043436 70.31835938 137.48339844 C67.07365868 129.8049053 63.81054934 122.134251 60.54766846 114.46347046 C59.14626194 111.16822612 57.74602095 107.87248703 56.34573364 104.57676697 C53.41850135 97.68739367 50.48924202 90.79888935 47.55670166 83.91177368 C46.02924134 80.3242904 44.5025107 76.73649679 42.97583008 73.14868164 C42.25760446 71.46135319 41.53903331 69.77417176 40.82006836 68.0871582 C39.81402389 65.72646371 38.8092477 63.36523267 37.8046875 61.00390625 C37.52297699 60.34379044 37.24126648 59.68367462 36.95101929 59.0035553 C33.56292886 51.03205212 30.29098397 43.01193219 27 35 C26.92989138 52.23740049 26.87700277 69.47475643 26.84456348 86.71226692 C26.82910042 94.71610406 26.80802166 102.71985257 26.77368164 110.72363281 C26.74376207 117.70045115 26.72442092 124.67720528 26.71773452 131.65408599 C26.71382657 135.34765882 26.70465418 139.041048 26.68280983 142.73456192 C26.6586108 146.85974494 26.65803165 150.9846095 26.65942383 155.10986328 C26.648638 156.33193985 26.63785217 157.55401642 26.6267395 158.81312561 C26.60246278 166.84304658 26.60246278 166.84304658 30 174 C32.13692636 175.50324556 32.13692636 175.50324556 34.5625 176.3125 C35.74005859 176.77076172 35.74005859 176.77076172 36.94140625 177.23828125 C37.62074219 177.48964844 38.30007813 177.74101562 39 178 C39.66 178.33 40.32 178.66 41 179 C41 179.99 41 180.98 41 182 C27.47 182 13.94 182 0 182 C0 181.01 0 180.02 0 179 C1.01320313 178.67128906 1.01320313 178.67128906 2.046875 178.3359375 C2.93890625 178.01882812 3.8309375 177.70171875 4.75 177.375 C5.63171875 177.07335937 6.5134375 176.77171875 7.421875 176.4609375 C10.85576831 174.51506462 12.07008779 172.42670107 14 169 C14.59305769 165.80799273 14.59305769 165.80799273 14.50793457 162.39648438 C14.51921387 161.08429932 14.53049316 159.77211426 14.54211426 158.42016602 C14.5343381 156.97802512 14.52614549 155.53588642 14.51757812 154.09375 C14.5230019 152.56566705 14.530126 151.03758934 14.53881836 149.50952148 C14.55702444 145.36897921 14.54999557 141.22883645 14.53730202 137.08828735 C14.52716021 132.75090474 14.53657097 128.41355586 14.54284668 124.07617188 C14.55011965 116.79290641 14.54054461 109.5098033 14.52148438 102.2265625 C14.49971624 93.81152078 14.50676787 85.39686674 14.52879 76.98183441 C14.54695401 69.75107256 14.54949744 62.52042727 14.53903532 55.28964996 C14.53280587 50.97355293 14.53194959 46.657638 14.54518127 42.34155273 C14.5567538 38.28335462 14.54868885 34.22565533 14.52560425 30.16751099 C14.52032459 28.68003161 14.52181827 27.19251011 14.53065491 25.70504761 C14.5416215 23.67121908 14.52541659 21.63729859 14.50793457 19.60351562 C14.50642647 18.46644165 14.50491837 17.32936768 14.50336456 16.15783691 C13.88110758 12.25413328 12.44321784 10.07336168 10 7 C7.47969117 5.46688914 7.47969117 5.46688914 4.75 4.625 C3.41195313 4.14933594 3.41195313 4.14933594 2.046875 3.6640625 C1.37140625 3.44492188 0.6959375 3.22578125 0 3 C0 2.01 0 1.02 0 0 Z " fill="#000000" transform="translate(390,8)"/>
<path d="M0 0 C0.495 8.91 0.495 8.91 1 18 C1.825 16.80375 2.65 15.6075 3.5 14.375 C9.2792837 6.75011754 16.58648177 1.97130146 26 0 C38.16459875 -1.33381247 49.09477371 -0.28847112 59.375 6.8125 C63.81918364 10.42625097 67.26963243 14.35944034 68.8125 19.9375 C68.874375 20.618125 68.93625 21.29875 69 22 C69.66 22 70.32 22 71 22 C71.2784375 21.01 71.2784375 21.01 71.5625 20 C76.10587364 10.51817675 84.41756006 4.6512696 94 1 C104.42175107 -1.96148958 117.47294348 -1.1237951 127 4 C135.85634664 8.96327657 140.54655879 17.02274994 143.35197449 26.59127808 C144.68475747 33.60193812 144.42225237 40.7672833 144.41069031 47.88136864 C144.40617673 50.90454783 144.42031 53.92715266 144.43908691 56.95027161 C144.48190524 64.45166207 144.49311753 71.95303757 144.50531006 79.45452881 C144.51685421 85.81131105 144.54044666 92.16782838 144.58000183 98.52449989 C144.5935329 101.49530433 144.58940981 104.46574627 144.58459473 107.43656921 C144.59393715 109.26395119 144.60410643 111.09132919 144.61523438 112.91870117 C144.60908615 113.73809174 144.60293793 114.5574823 144.59660339 115.40170288 C144.6526827 120.66100532 145.49479984 124.34417057 148 129 C151.43116608 131.75985098 154.85816597 133.53817623 159 135 C159 135.99 159 136.98 159 138 C140.85 138 122.7 138 104 138 C103.96261719 130.513125 103.92523437 123.02625 103.88671875 115.3125 C103.85643568 110.56377925 103.82528551 105.81509582 103.79101562 101.06640625 C103.73672747 93.53240861 103.68561573 85.9984848 103.65356445 78.46435547 C103.62751713 72.38881237 103.58710394 66.31351776 103.53681374 60.23812866 C103.52015482 57.92258805 103.50863449 55.60700446 103.50238609 53.29141235 C103.49273471 50.04296951 103.46466176 46.795161 103.43237305 43.546875 C103.43380814 42.59380966 103.43524323 41.64074432 103.4367218 40.65879822 C103.35389572 34.7499055 102.36011569 30.42323058 100 25 C99.67 24.01 99.34 23.02 99 22 C93.45785519 19.12996072 87.95472318 18.42840471 81.9765625 20.12890625 C77.73674164 21.9974439 75.49695632 25.25456552 73 29 C72.80465385 32.05490682 72.72713941 35.01842363 72.74121094 38.07373047 C72.7377063 39.00247986 72.73420166 39.93122925 72.73059082 40.88812256 C72.72177392 43.96455313 72.72762351 47.0407545 72.734375 50.1171875 C72.73302811 52.25326583 72.73108738 54.38934386 72.72857666 56.52542114 C72.72562526 61.00607212 72.72992273 65.48664343 72.73925781 69.96728516 C72.75063853 75.70966898 72.74410167 81.45186557 72.73211288 87.19424248 C72.72488298 91.60716154 72.72718767 96.02003629 72.73236847 100.4329567 C72.73370255 102.55005032 72.73206571 104.66714798 72.72740936 106.78423691 C72.72232717 109.7454263 72.73007897 112.70631355 72.74121094 115.66748047 C72.73716248 116.54246185 72.73311401 117.41744324 72.72894287 118.31893921 C72.75879804 122.60848699 72.82740777 126.17124208 75 130 C77.97260908 132.27689206 80.44831402 133.81610467 84 135 C84 135.99 84 136.98 84 138 C66.84 138 49.68 138 32 138 C31.96261719 130.59691406 31.92523437 123.19382812 31.88671875 115.56640625 C31.85643184 110.86781555 31.82527915 106.1692624 31.79101562 101.47070312 C31.73675018 94.01800455 31.68563754 86.56538026 31.65356445 79.11254883 C31.62749658 73.10183866 31.58706893 67.09137879 31.53681374 61.0808239 C31.52016869 58.79122984 31.50863975 56.50159251 31.50238609 54.21194649 C31.49271955 50.99723386 31.46462872 47.78315819 31.43237305 44.56860352 C31.43380814 43.62848419 31.43524323 42.68836487 31.4367218 41.71975708 C31.34692478 35.3639674 30.78576521 28.55506415 26.72532177 23.37331486 C23.12024106 20.01749716 19.83267327 19.08478374 15 19 C9.43045339 19.96026666 6.65315293 21.72059228 3 26 C0.34778903 29.97831646 0.71230121 33.43910928 0.7253418 38.05786133 C0.72023087 38.98500443 0.71511993 39.91214752 0.70985413 40.86738586 C0.69592973 43.93899962 0.69691736 47.01038964 0.69921875 50.08203125 C0.69533274 52.21571435 0.69099826 54.34939668 0.68623352 56.483078 C0.67876471 60.95952865 0.67906691 65.43590045 0.68432617 69.91235352 C0.69011469 75.64573177 0.67320779 81.37878634 0.6499815 87.11211109 C0.63523874 91.52078638 0.63437333 95.92938388 0.63749123 100.33807945 C0.63697806 102.45156176 0.63174119 104.56504843 0.62167931 106.67850685 C0.60932506 109.63720228 0.61610128 112.59526949 0.62768555 115.55395508 C0.62004181 116.42534119 0.61239807 117.29672729 0.60452271 118.19451904 C0.64780894 123.20344775 1.21617817 126.66063529 4 131 C5.9739321 132.52280858 5.9739321 132.52280858 8.1875 133.375 C9.26064453 133.85066406 9.26064453 133.85066406 10.35546875 134.3359375 C10.89816406 134.55507812 11.44085937 134.77421875 12 135 C12 135.99 12 136.98 12 138 C-5.16 138 -22.32 138 -40 138 C-40.03738281 130.21277344 -40.07476563 122.42554688 -40.11328125 114.40234375 C-40.14355988 109.4667748 -40.17470714 104.53124196 -40.20898438 99.59570312 C-40.26329875 91.76312073 -40.31440942 83.93060976 -40.34643555 76.09790039 C-40.37245916 69.78246388 -40.4128556 63.46726738 -40.46318626 57.15197945 C-40.47986122 54.74350534 -40.49137156 52.33498972 -40.49761391 49.92646599 C-40.5072478 46.55090088 -40.53530006 43.17595068 -40.56762695 39.80053711 C-40.56619186 38.80647354 -40.56475677 37.81240997 -40.5632782 36.78822327 C-40.64000961 31.1165702 -41.2009351 26.9826628 -44 22 C-46.65042189 20.32839059 -46.65042189 20.32839059 -49.6875 19.5625 C-50.68136719 19.25441406 -51.67523437 18.94632813 -52.69921875 18.62890625 C-53.83810547 18.31759766 -53.83810547 18.31759766 -55 18 C-55 17.01 -55 16.02 -55 15 C-42.38560004 11.26815903 -29.75076474 7.61407703 -17.07333374 4.10229492 C-15.13936402 3.56647962 -13.2060317 3.02836547 -11.27270508 2.49023438 C-10.09216553 2.16474609 -8.91162598 1.83925781 -7.6953125 1.50390625 C-6.1177417 1.06800171 -6.1177417 1.06800171 -4.50830078 0.62329102 C-2 0 -2 0 0 0 Z " fill="#000000" transform="translate(1121,52)"/>
<path d="M0 0 C17.93636651 12.8251292 25.83612392 36.90532724 29.359375 57.78515625 C30.49796147 65.03028716 31.30819551 72.26581809 31.609375 79.59765625 C31.650625 80.57089844 31.691875 81.54414062 31.734375 82.546875 C32.34033381 112.12523949 26.56205892 145.73571389 5.671875 168.03515625 C-2.09831638 175.39155046 -9.76383719 177.99892188 -20.296875 177.87109375 C-29.55547242 177.05278337 -37.52575731 171.03109852 -43.48828125 164.19140625 C-65.13525844 135.82927814 -69.05343584 95.97540385 -64.62158203 61.5144043 C-64.03374837 57.83298514 -63.27560079 54.21852188 -62.390625 50.59765625 C-62.19726562 49.79118652 -62.00390625 48.9847168 -61.8046875 48.15380859 C-57.06492263 29.09600401 -49.07937915 10.4451517 -32.4921875 -1.21875 C-21.50599535 -7.40614075 -10.65807977 -6.25204352 0 0 Z " fill="#000000" transform="translate(266.390625,12.40234375)"/>
<path d="M0 0 C0.00238835 0.89029687 0.00477671 1.78059374 0.00723743 2.6978693 C0.06638317 24.36454479 0.14193059 46.03110901 0.23571491 67.69766331 C0.28067321 78.17546648 0.32008784 88.65323566 0.34643555 99.13110352 C0.3694153 108.26401542 0.40281316 117.39681975 0.44870156 126.52964634 C0.472634 131.36504679 0.49136267 136.2003407 0.49761391 141.03579903 C0.50366462 145.58878888 0.52366412 150.14150614 0.55427551 154.69439507 C0.56305592 156.36365745 0.56677831 158.03295545 0.56500816 159.70223999 C0.56335134 161.98597538 0.58008845 164.26888378 0.60127258 166.55250549 C0.60588155 167.82918878 0.61049051 169.10587206 0.61523914 170.42124271 C1.06858744 174.637949 2.04647679 177.24698045 4 181 C7.43116608 183.75985098 10.85816597 185.53817623 15 187 C15 187.99 15 188.98 15 190 C-3.15 190 -21.3 190 -40 190 C-40.495 182.575 -40.495 182.575 -41 175 C-41.94875 176.340625 -42.8975 177.68125 -43.875 179.0625 C-50.04202302 186.94189561 -57.99145715 192.52116517 -68 194 C-82.0311685 195.28399102 -93.83561085 193.14945336 -105 184 C-117.4855792 172.68129736 -123.64825776 155.07795401 -124.90625 138.50390625 C-124.9371875 137.67761719 -124.968125 136.85132813 -125 136 C-125.0515625 134.77152344 -125.103125 133.54304687 -125.15625 132.27734375 C-125.78332729 109.97316741 -120.47122803 87.97429309 -105.6875 70.6875 C-95.21111985 59.62614431 -81.46677931 52.38434757 -66.1328125 51.6640625 C-64.46365643 51.64055326 -62.7943196 51.62759614 -61.125 51.625 C-60.30386719 51.60050781 -59.48273438 51.57601562 -58.63671875 51.55078125 C-51.8125069 51.51884266 -46.25647485 53.37016478 -40 56 C-40.08116856 51.79089445 -40.19399046 47.5832067 -40.3125 43.375 C-40.33505859 42.18519531 -40.35761719 40.99539062 -40.38085938 39.76953125 C-40.48745191 31.40760471 -40.48745191 31.40760471 -44 24 C-48.7758571 20.66122207 -55.34400756 20.37968468 -61 20 C-61 19.01 -61 18.02 -61 17 C-55.13291767 15.22041834 -49.26538644 13.44232678 -43.39746094 11.66552734 C-41.40743247 11.06273197 -39.4175205 10.45955186 -37.42773438 9.85595703 C-30.95517916 7.8927021 -24.4795833 5.9399346 -18 4 C-17.24803345 3.77401123 -16.49606689 3.54802246 -15.72131348 3.31518555 C-13.76657181 2.72997703 -11.80916763 2.15368223 -9.8515625 1.578125 C-8.80049316 1.2677832 -7.74942383 0.95744141 -6.66650391 0.63769531 C-4 0 -4 0 0 0 Z M-59.875 61.1875 C-60.51179687 61.40792969 -61.14859375 61.62835938 -61.8046875 61.85546875 C-71.02361866 66.66177984 -74.5368313 75.45315686 -78.0390625 84.76171875 C-84.98412306 107.66638816 -84.76217912 137.20376009 -73.5859375 158.72265625 C-70.03165701 164.41520708 -65.5045928 169.8318024 -59 172 C-52.81446779 172.85401825 -48.78975357 171.85856149 -43.62890625 168.38671875 C-41.74020171 166.90711994 -41.74020171 166.90711994 -40 164 C-39.7841191 160.98700255 -39.68551293 158.06467912 -39.67773438 155.04980469 C-39.66780457 154.13402145 -39.65787476 153.21823822 -39.64764404 152.27470398 C-39.61839832 149.24039721 -39.60479575 146.20629965 -39.59375 143.171875 C-39.58224598 141.06300856 -39.57073053 138.95414219 -39.5592041 136.84527588 C-39.53818256 132.42011541 -39.52649872 127.99502761 -39.51953125 123.56982422 C-39.5085699 117.90575058 -39.46053529 112.24264055 -39.40358734 106.57886887 C-39.36629245 102.22075622 -39.35592116 97.86287452 -39.3528595 93.50461578 C-39.34681327 91.41703277 -39.33077884 89.3294535 -39.30448914 87.24202728 C-39.27027922 84.31653679 -39.27414646 81.39338418 -39.28710938 78.46777344 C-39.26867981 77.60933334 -39.25025024 76.75089325 -39.23126221 75.86643982 C-39.30828899 70.30202116 -40.59308473 67.40077982 -44.40738678 63.33877945 C-48.96188572 59.51018535 -54.4387325 59.21166784 -59.875 61.1875 Z " fill="#000000" transform="translate(849,0)"/>
<path d="M0 0 C0.00586624 1.31243179 0.01173248 2.62486359 0.01777649 3.97706604 C0.07501318 16.35128427 0.14778008 28.72532692 0.23571491 41.09936619 C0.28042397 47.46084385 0.31967918 53.82225738 0.34643555 60.18383789 C0.37246278 66.32421393 0.41286175 72.46434328 0.46318626 78.60456657 C0.47985877 80.94605374 0.49137064 83.28758358 0.49761391 85.62912178 C0.50725048 88.91129484 0.53530581 92.19283621 0.56762695 95.47485352 C0.56619186 96.44086487 0.56475677 97.40687622 0.5632782 98.40216064 C0.66220297 105.51509029 1.7037751 110.35934137 6.5 115.875 C10.62352455 119.37999587 14.31138482 119.27912507 19.49609375 119.21875 C23.87134941 118.83651238 26.69956338 116.97411383 30.13369751 114.40171814 C32.75916021 111.02304752 32.54553056 107.92568477 32.48583984 103.82250977 C32.48963654 103.00090363 32.49343323 102.17929749 32.49734497 101.33279419 C32.50475036 98.61860903 32.48336685 95.90549619 32.4609375 93.19140625 C32.45855271 91.30338161 32.45764783 89.41535457 32.4581604 87.52732849 C32.45503229 83.57039532 32.43846767 79.61382445 32.41162109 75.65698242 C32.3776646 70.58831545 32.36999191 65.52004703 32.37151146 60.45127964 C32.37096716 56.55218206 32.35999005 52.65317136 32.34550858 48.75410271 C32.33914981 46.88542272 32.33520384 45.0167329 32.33372116 43.14804268 C32.32937705 40.53415348 32.31185156 37.9206836 32.29052734 35.30688477 C32.29143372 34.53633255 32.29234009 33.76578033 32.29327393 32.97187805 C32.24478401 28.89998488 31.95359524 25.61309715 30 22 C27.8617009 20.555806 27.8617009 20.555806 25.375 19.6875 C24.55773437 19.36136719 23.74046875 19.03523438 22.8984375 18.69921875 C22.27195312 18.46847656 21.64546875 18.23773438 21 18 C21 17.01 21 16.02 21 15 C34.14182686 10.91637245 47.29385667 6.87135946 60.5 3 C61.52544922 2.69763428 62.55089844 2.39526855 63.60742188 2.08374023 C64.55166016 1.80860596 65.49589844 1.53347168 66.46875 1.25 C67.29826172 1.00765625 68.12777344 0.7653125 68.98242188 0.515625 C71 0 71 0 73 0 C73.00496522 0.89065312 73.00496522 0.89065312 73.01003075 1.79929924 C73.09143566 16.28181187 73.18358461 30.76422711 73.28752708 45.24659538 C73.33753791 52.25031246 73.38398159 59.25401851 73.421875 66.2578125 C73.45847466 73.02059842 73.50521705 79.78325455 73.55806351 86.54593277 C73.57655351 89.12219186 73.59168123 91.69847741 73.60334396 94.27477646 C73.62029868 97.89148291 73.64935632 101.50790939 73.68115234 105.12451172 C73.68331253 106.18259537 73.68547272 107.24067902 73.68769836 108.33082581 C73.71489269 119.74863083 73.71489269 119.74863083 78.125 129.9375 C81.65945039 132.47308397 84.86526929 133.66847655 89 135 C89 135.99 89 136.98 89 138 C70.52 138 52.04 138 33 138 C32.505 130.575 32.505 130.575 32 123 C30.2984375 125.289375 30.2984375 125.289375 28.5625 127.625 C24.57003588 132.59449319 20.63385166 136.03635929 15 139 C14.360625 139.33902344 13.72125 139.67804688 13.0625 140.02734375 C3.97846557 143.87741303 -8.8922663 143.45687619 -18.125 140.375 C-27.10472195 136.41457133 -33.04682675 131.10745814 -37 122 C-40.51649216 112.51774885 -40.44080432 103.09814131 -40.44140625 93.14453125 C-40.45320328 91.43062731 -40.46657311 89.71673354 -40.48143005 88.00285339 C-40.51738654 83.51963055 -40.53774986 79.03649802 -40.55297852 74.55316162 C-40.57793761 67.36894308 -40.61772731 60.1849239 -40.67487907 53.00089073 C-40.69108769 50.50606358 -40.69497365 48.01142885 -40.69789124 45.51655579 C-40.70767421 43.9756335 -40.71793857 42.43471417 -40.72875977 40.89379883 C-40.72620682 40.21048492 -40.72365387 39.52717102 -40.72102356 38.82315063 C-40.78034591 33.16368427 -41.39752575 27.43576086 -44.5625 22.625 C-48.11118274 20.25921151 -51.83378412 19.67656497 -56 19 C-55.80245972 17.11444092 -55.80245972 17.11444092 -55 15 C-52.92581177 13.94952393 -52.92581177 13.94952393 -50.16064453 13.16894531 C-49.12932404 12.86893616 -48.09800354 12.568927 -47.03543091 12.25982666 C-45.91256683 11.95236511 -44.78970276 11.64490356 -43.6328125 11.328125 C-42.48714813 11.00084412 -41.34148376 10.67356323 -40.16110229 10.33636475 C-36.48672896 9.29152784 -32.80603264 8.27109687 -29.125 7.25 C-26.64931891 6.54705279 -24.17405228 5.84264413 -21.69921875 5.13671875 C-19.3441196 4.47004712 -16.98866205 3.80464002 -14.6328125 3.140625 C-13.51399689 2.82506653 -12.39518127 2.50950806 -11.24246216 2.18438721 C-10.20483734 1.89698669 -9.16721252 1.60958618 -8.09814453 1.31347656 C-7.18404816 1.05906799 -6.26995178 0.80465942 -5.32815552 0.5425415 C-3 0 -3 0 0 0 Z " fill="#000000" transform="translate(981,52)"/>
<path d="M0 0 C11.62658732 9.17187412 17.0672258 22.80186314 19.703125 37.00390625 C20.13039409 41.31595085 20 45.66683862 20 50 C-6.73 50 -33.46 50 -61 50 C-59.12279698 66.89482721 -56.99922056 81.87014621 -43.42578125 93.13671875 C-35.67351898 98.41179593 -26.50592677 102.14726702 -17 101 C-4.95735566 98.36567155 3.76054614 93.01201066 11 83 C12.44141493 80.70541113 13.72838035 78.39651395 15 76 C16.32 76 17.64 76 19 76 C18.16233098 91.91571144 10.9541428 109.21097833 -1 120 C-15.35796885 130.77400744 -29.45436414 133.2811875 -47 132 C-55.57714569 130.47768712 -62.92270616 127.01511684 -70 122 C-70.68578125 121.52175781 -71.3715625 121.04351562 -72.078125 120.55078125 C-85.85199358 109.78655718 -92.60095462 90.97346264 -94.77294922 74.23339844 C-97.07793508 51.56026865 -93.6013076 28.13337336 -79 10 C-77.84564453 8.52080078 -77.84564453 8.52080078 -76.66796875 7.01171875 C-57.90539717 -15.31457474 -22.81502581 -14.89106534 0 0 Z M-49.5625 5.4375 C-57.59340279 15.22350075 -61 29.44290658 -61 42 C-45.82 42 -30.64 42 -15 42 C-14.65513939 21.52404141 -14.65513939 21.52404141 -23.484375 3.453125 C-28.07701727 -0.5938568 -31.83567827 -1.31740204 -37.73046875 -1.203125 C-42.92253314 -0.73843077 -46.06026078 1.81475363 -49.5625 5.4375 Z " fill="#000000" transform="translate(698,62)"/>
<path d="M0 0 C0.00238835 0.61015174 0.00477671 1.22030348 0.00723743 1.84894466 C0.06647892 16.72336054 0.14208725 31.59762636 0.23571491 46.47186184 C0.28060233 53.66506417 0.32003305 60.85821778 0.34643555 68.05151367 C0.369473 74.32418486 0.40293465 80.59670092 0.44870156 86.86924893 C0.47255687 90.18783968 0.48978047 93.50624598 0.49761391 96.82491875 C0.50726337 100.53772556 0.53533468 104.24997696 0.56762695 107.96264648 C0.56619186 109.05237762 0.56475677 110.14210876 0.5632782 111.26486206 C0.6398724 117.50858136 1.10288552 123.35705212 4 129 C7.67080057 132.18136049 11.35618769 133.67319648 16 135 C16 135.99 16 136.98 16 138 C-2.48 138 -20.96 138 -40 138 C-40.02578125 130.12898437 -40.0515625 122.25796875 -40.078125 114.1484375 C-40.10329072 109.16272779 -40.1296216 104.1770789 -40.16015625 99.19140625 C-40.20851359 91.27750412 -40.25254988 83.36374277 -40.27099609 75.44970703 C-40.28613728 69.06938877 -40.32053852 62.68943869 -40.36830902 56.30928421 C-40.38314887 53.87486597 -40.3910425 51.44039518 -40.39188385 49.00593185 C-40.3942473 45.59649121 -40.42127897 42.18807317 -40.45410156 38.77880859 C-40.44655602 37.26829422 -40.44655602 37.26829422 -40.43885803 35.7272644 C-40.52616044 29.86767095 -41.06485628 26.44751753 -45 22 C-47.52627489 20.66909583 -47.52627489 20.66909583 -50.25 20.125 C-51.14203125 19.90070313 -52.0340625 19.67640625 -52.953125 19.4453125 C-53.62859375 19.29835938 -54.3040625 19.15140625 -55 19 C-54.80345154 17.11444092 -54.80345154 17.11444092 -54 15 C-51.91908264 13.94952393 -51.91908264 13.94952393 -49.14477539 13.16894531 C-48.1102272 12.86893616 -47.07567902 12.568927 -46.00978088 12.25982666 C-44.88377975 11.95236511 -43.75777863 11.64490356 -42.59765625 11.328125 C-41.44962021 11.00084412 -40.30158417 10.67356323 -39.11875916 10.33636475 C-35.43766348 9.29150537 -31.7503004 8.27091243 -28.0625 7.25 C-25.57834862 6.54708172 -23.09461829 5.84267354 -20.61132812 5.13671875 C-16.07150647 3.85356353 -11.53114881 2.57267915 -6.98461914 1.31347656 C-6.06830215 1.05906799 -5.15198517 0.80465942 -4.207901 0.5425415 C-2 0 -2 0 0 0 Z " fill="#000000" transform="translate(915,52)"/>
<path d="M0 0 C18.55938144 19.10950351 15.54587311 63.32100949 15.19140625 87.6328125 C13.73450459 146.22041748 13.73450459 146.22041748 1 163 C-1.4375 164.1875 -1.4375 164.1875 -4 164 C-12.02556013 158.12763893 -13.86259067 147.59175872 -15.625 138.375 C-15.83664795 137.27091797 -16.0482959 136.16683594 -16.26635742 135.02929688 C-23.12088658 97.79692238 -29.05462216 34.14494645 -7 1 C-4.32590305 -0.33704848 -2.97186266 -0.4837916 0 0 Z " fill="#000000" transform="translate(326,17)"/>
<path d="M0 0 C4.82888034 4.40028149 8.53452037 8.95576786 9.30078125 15.61328125 C9.33129686 22.64204381 9.07957025 28.56012682 4.23046875 33.9765625 C-1.86567383 39.64142922 -7.20064401 41.47413833 -15.48046875 41.23828125 C-22.86453522 40.53994318 -26.81649179 37.75253299 -31.5546875 32.1328125 C-35.64222901 26.10092692 -35.72743141 20.08094625 -35 13 C-33.26367424 6.7513067 -29.31618225 2.55191078 -24 -1 C-16.7542297 -4.54237659 -6.90721783 -4.31879872 0 0 Z " fill="#000000" transform="translate(907,4)"/>
</svg>
